<svg width="24" height="24" viewBox="0 0 24 24" fill="currentColor" >
<path d="M19.2249 3.06028C20.5917 4.42712 20.5917 6.64319 19.2249 8.01003L8.05347 19.1814C7.71895 19.5159 7.31005 19.7666 6.86017 19.913L3.94422 20.8615C2.38964 21.3672 0.917939 19.8955 1.42364 18.3409L2.37219 15.425C2.51853 14.9751 2.7692 14.5662 3.10372 14.2317L14.2751 3.06028C15.6419 1.69345 17.858 1.69345 19.2249 3.06028ZM15.6893 4.4745L4.51793 15.6459C4.40643 15.7574 4.32287 15.8937 4.27409 16.0436L3.32554 18.9596L6.24149 18.011C6.39145 17.9623 6.52775 17.8787 6.63926 17.7672L17.8106 6.59582C18.3964 6.01003 18.3964 5.06028 17.8106 4.4745C17.2249 3.88871 16.2751 3.88871 15.6893 4.4745ZM9.99925 20.9996C9.44697 20.9996 8.99925 21.4473 8.99925 21.9996C8.99925 22.5519 9.44697 22.9996 9.99925 22.9996H20.9993C21.5515 22.9996 21.9993 22.5519 21.9993 21.9996C21.9993 21.4473 21.5515 20.9996 20.9993 20.9996H9.99925Z" />
</svg>
