<svg width="24" height="24" viewBox="0 0 24 24" fill="currentColor" >
<path d="M15.5939 6.80809C13.1675 4.38168 9.23352 4.38168 6.80711 6.80809C4.3807 9.23449 4.3807 13.1685 6.80711 15.5949C9.23352 18.0213 13.1675 18.0213 15.5939 15.5949C18.0203 13.1685 18.0203 9.23449 15.5939 6.80809ZM5.3929 5.39387C8.60035 2.18642 13.8007 2.18642 17.0081 5.39387C19.9762 8.36197 20.1977 13.0366 17.6726 16.2594L21.7985 20.3853C22.189 20.7758 22.189 21.4089 21.7985 21.7995C21.408 22.19 20.7748 22.19 20.3843 21.7995L16.2584 17.6736C13.0356 20.1987 8.36099 19.9772 5.3929 17.0091C2.18544 13.8016 2.18544 8.60133 5.3929 5.39387Z" />
</svg>
